<?xml version="1.0" encoding="utf-8"?>
<!-- Generator: Adobe Illustrator 25.0.0, SVG Export Plug-In . SVG Version: 6.00 Build 0)  -->
<svg version="1.1" id="Layer_1" xmlns="http://www.w3.org/2000/svg" xmlns:xlink="http://www.w3.org/1999/xlink" x="0px" y="0px"
	 viewBox="0 0 23 23" style="enable-background:new 0 0 23 23;" xml:space="preserve">
<style type="text/css">
	.st0{fill:#848484;}
	.st1{fill:none;stroke:#848484;stroke-width:0.25;stroke-miterlimit:10;}
	.st2{opacity:0.2;fill:#848484;}
</style>
<path class="st0" d="M11.6,2.5L11.6,2.5c0.6,0,1.2,0.5,1.2,1.2v15.6c0,0.6-0.5,1.2-1.2,1.2l0,0c-0.6,0-1.2-0.5-1.2-1.2V3.6
	C10.4,3,10.9,2.5,11.6,2.5z"/>
<path class="st0" d="M20.5,11.4L20.5,11.4c0,0.6-0.5,1.2-1.2,1.2H3.8c-0.6,0-1.2-0.5-1.2-1.2l0,0c0-0.6,0.5-1.2,1.2-1.2h15.6
	C20,10.3,20.5,10.8,20.5,11.4z"/>
<circle class="st1" cx="11.5" cy="11.5" r="10.8"/>
<circle class="st2" cx="11.6" cy="11.5" r="10.8"/>
</svg>
